<svg width="105" height="36" viewBox="0 0 105 36" fill="none" xmlns="http://www.w3.org/2000/svg">
<path d="M19.7016 5.57812V29.8663H17.4806V26.8612C16.5345 28.0138 15.4857 28.8783 14.2929 29.4546C13.1207 30.031 11.8251 30.3191 10.4472 30.3191C7.95876 30.3191 5.86109 29.4135 4.09246 27.6227C2.3444 25.832 1.46008 23.6296 1.46008 21.0567C1.46008 18.525 2.3444 16.3843 4.11302 14.573C5.88165 12.7823 8.02046 11.8766 10.5089 11.8766C11.9485 11.8766 13.2441 12.1853 14.4163 12.8028C15.5885 13.4203 16.5962 14.326 17.4806 15.561V5.57812H19.7016ZM10.694 14.0584C9.43947 14.0584 8.28781 14.3672 7.2184 14.9846C6.149 15.6021 5.30582 16.4666 4.68886 17.5781C4.05133 18.6896 3.74285 19.8629 3.74285 21.1184C3.74285 22.3534 4.05133 23.5267 4.68886 24.6588C5.32638 25.7908 6.16957 26.6553 7.23897 27.2934C8.30837 27.9109 9.46004 28.2402 10.6734 28.2402C11.9073 28.2402 13.0796 27.9315 14.1901 27.314C15.3006 26.6965 16.1438 25.8526 16.7402 24.7823C17.3366 23.7119 17.6245 22.5181 17.6245 21.1802C17.6245 19.163 16.9664 17.4546 15.6297 16.0961C14.2929 14.7377 12.6477 14.0584 10.694 14.0584Z" fill="black"/>
<path d="M10.4472 31.8007C7.56808 31.8007 5.07966 30.7509 3.04368 28.6514C1.00771 26.5725 0 24.0202 0 21.0563C0 18.1334 1.02827 15.6017 3.08481 13.5434C5.14136 11.4645 7.62977 10.4147 10.5295 10.4147C12.1953 10.4147 13.7377 10.7852 15.1156 11.5056C15.4241 11.6703 15.712 11.8556 16.0205 12.0408V4.0957H21.203V31.3479H16.0205V30.1746C15.6914 30.401 15.3418 30.5863 14.9716 30.7715C13.5937 31.4508 12.0719 31.8007 10.4472 31.8007ZM10.694 15.54C9.70688 15.54 8.802 15.7664 7.95882 16.2604C7.11564 16.7338 6.47811 17.413 5.98454 18.2981C5.4704 19.2038 5.22362 20.1094 5.22362 21.118C5.22362 22.106 5.4704 23.0117 5.98454 23.9379C6.49868 24.8436 7.15677 25.5228 7.99995 26.0168C9.70688 27.0254 11.7017 27.0048 13.4498 26.0168C14.3135 25.5228 14.9716 24.8847 15.4241 24.0614C15.8971 23.2175 16.1233 22.2707 16.1233 21.2003C16.1233 19.5537 15.6092 18.2364 14.5398 17.1455C13.5321 16.0751 12.257 15.54 10.694 15.54Z" fill="black"/>
<path d="M33.09 11.877C35.784 11.877 38.0257 12.865 39.7943 14.7998C41.3984 16.5905 42.221 18.69 42.221 21.1394C42.221 23.5888 41.3778 25.7294 39.6709 27.5613C37.964 29.3932 35.784 30.2989 33.1105 30.2989C30.4165 30.2989 28.216 29.3932 26.5296 27.5613C24.8227 25.7294 23.9795 23.5888 23.9795 21.1394C23.9795 18.7106 24.7815 16.6111 26.4062 14.8203C28.1543 12.8649 30.3959 11.877 33.09 11.877ZM33.09 14.0999C31.2185 14.0999 29.6144 14.7998 28.2571 16.1788C26.8998 17.5579 26.2417 19.2457 26.2417 21.2011C26.2417 22.4773 26.5502 23.6505 27.1671 24.7414C27.7841 25.8323 28.6067 26.6763 29.6556 27.2732C30.7044 27.8701 31.8561 28.1583 33.09 28.1583C34.3445 28.1583 35.4961 27.8701 36.5244 27.2732C37.5732 26.6763 38.3959 25.8323 39.0128 24.7414C39.6298 23.6505 39.9383 22.4567 39.9383 21.2011C39.9383 19.2252 39.2596 17.5579 37.9023 16.1788C36.5655 14.7792 34.9614 14.0999 33.09 14.0999Z" fill="black"/>
<path d="M33.0897 31.801C29.9843 31.801 27.4136 30.7101 25.4188 28.59C23.465 26.4905 22.4573 23.9794 22.4573 21.1595C22.4573 18.3601 23.4033 15.9108 25.2542 13.8524C27.3108 11.5677 29.9432 10.415 33.0691 10.415C36.195 10.415 38.8069 11.5677 40.8634 13.8319C42.7143 15.8902 43.6603 18.3601 43.6603 21.1595C43.6603 23.9794 42.6732 26.4905 40.6989 28.59C38.7657 30.7101 36.195 31.801 33.0897 31.801ZM33.0897 15.5814C31.6295 15.5814 30.3956 16.1166 29.3262 17.2075C28.2568 18.319 27.7221 19.6157 27.7221 21.2006C27.7221 22.2092 27.9689 23.1354 28.4624 24.0205C28.9354 24.885 29.573 25.5231 30.3956 25.9965C32.0408 26.9433 34.1591 26.9433 35.8043 25.9965C36.6269 25.5231 37.2439 24.885 37.7375 24.0205C38.231 23.1354 38.4778 22.2298 38.4778 21.2006C38.4778 19.6157 37.9431 18.319 36.8737 17.2075C35.7837 16.096 34.5498 15.5814 33.0897 15.5814Z" fill="black"/>
<path d="M55.198 14.2432L53.7584 15.7458C52.545 14.5725 51.3728 13.9962 50.2211 13.9962C49.4808 13.9962 48.8638 14.2432 48.3291 14.7166C47.815 15.19 47.5476 15.7664 47.5476 16.4044C47.5476 16.9808 47.7738 17.5159 48.1852 18.0305C48.617 18.5657 49.5219 19.1626 50.8998 19.883C52.5656 20.7475 53.7172 21.5914 54.3136 22.3941C54.91 23.2175 55.198 24.1231 55.198 25.1523C55.198 26.5931 54.6838 27.8075 53.6761 28.8161C52.6684 29.8247 51.3934 30.3187 49.8921 30.3187C48.8844 30.3187 47.9178 30.0922 46.9924 29.66C46.0669 29.2278 45.306 28.6102 44.7096 27.8487L46.1286 26.2432C47.2803 27.5399 48.4936 28.1986 49.7893 28.1986C50.6941 28.1986 51.4551 27.9104 52.0926 27.3341C52.7301 26.7578 53.0386 26.0785 53.0386 25.2964C53.0386 24.6583 52.8329 24.0819 52.4011 23.5674C51.9898 23.0734 51.0437 22.4559 49.563 21.6943C47.9795 20.871 46.9101 20.0682 46.3343 19.2861C45.7584 18.4833 45.4705 17.5777 45.4705 16.5691C45.4705 15.2312 45.923 14.1403 46.8278 13.2552C47.7327 12.3701 48.8844 11.9379 50.2623 11.9379C51.9281 11.8761 53.5527 12.6789 55.198 14.2432Z" fill="black"/>
<path d="M49.9125 31.801C48.6785 31.801 47.4857 31.5334 46.3752 30.9982C45.2441 30.4631 44.3187 29.7015 43.5577 28.7547L42.7968 27.7872L46.1284 24L47.2389 25.2555C48.1027 26.2229 48.9459 26.6963 49.7891 26.6963C50.3238 26.6963 50.7351 26.5317 51.1052 26.2229C51.5166 25.8318 51.5782 25.5231 51.5782 25.2761C51.5782 24.9879 51.496 24.7409 51.2903 24.4939C51.2081 24.391 50.7145 23.9176 48.9253 22.9914C47.1156 22.0445 45.8816 21.1183 45.1618 20.1097C44.4009 19.06 44.0307 17.8456 44.0307 16.5282C44.0307 14.7787 44.6477 13.3173 45.8405 12.144C47.0333 10.9914 48.5346 10.415 50.3032 10.415C52.298 10.415 54.2929 11.3413 56.2055 13.1938L57.2749 14.2229L53.7582 17.8456L52.6888 16.8164C51.3315 15.4991 50.077 15.108 49.3161 15.8078C49.0487 16.0548 49.0076 16.2401 49.0076 16.4048C49.0076 16.4871 49.0076 16.7135 49.3161 17.084C49.46 17.2692 49.9536 17.7426 51.5577 18.566C53.4703 19.554 54.7453 20.5214 55.4857 21.5094C56.2672 22.6003 56.6579 23.8147 56.6579 25.1526C56.6579 26.9845 55.9998 28.5694 54.7042 29.8662C53.4497 31.1423 51.825 31.801 49.9125 31.801Z" fill="black"/>
<path d="M66.5906 9.34473H68.894V34.518H66.5906V9.34473Z" fill="black"/>
<path d="M70.3751 7.86328H65.1104V36.0005H70.3751V7.86328Z" fill="black"/>
<path d="M82.1174 5.125C82.6316 5.125 83.0634 5.31026 83.4336 5.68075C83.8038 6.05125 83.9683 6.4835 83.9683 6.99808C83.9683 7.51266 83.7832 7.9449 83.4336 8.29481C83.0634 8.66531 82.6316 8.85057 82.1174 8.85057C81.6239 8.85057 81.1714 8.66531 80.8218 8.29481C80.4516 7.92432 80.2665 7.49207 80.2665 6.99808C80.2665 6.4835 80.4516 6.05125 80.8218 5.68075C81.1714 5.31026 81.6033 5.125 82.1174 5.125ZM80.9863 12.3291H83.2485V29.8454H80.9863V12.3291Z" fill="black"/>
<path d="M84.7293 31.3479H79.5263V10.8677H84.7293V31.3479ZM82.1175 10.3119C81.2126 10.3119 80.4106 9.96199 79.773 9.32391C79.1355 8.68583 78.8065 7.88309 78.8065 6.97743C78.8065 6.07177 79.1355 5.24844 79.7936 4.61036C81.0687 3.31362 83.228 3.3342 84.5031 4.61036C85.1406 5.24844 85.4697 6.07177 85.4697 6.97743C85.4697 7.88309 85.1406 8.68583 84.4825 9.32391C83.845 9.98257 83.0224 10.3119 82.1175 10.3119ZM82.1175 6.60693C82.0147 6.60693 81.9735 6.62752 81.8707 6.70985C81.7885 6.79219 81.7473 6.87452 81.7473 6.99802C81.7473 7.10093 81.7679 7.16268 81.8501 7.26559C82.0764 7.49201 82.2203 7.43026 82.3643 7.26559C82.4671 7.16268 82.4877 7.10093 82.4877 6.99802C82.4877 6.87452 82.4671 6.81276 82.3643 6.73043C82.282 6.62751 82.2203 6.60693 82.1175 6.60693Z" fill="black"/>
<path d="M87.9377 12.3297H90.1999V15.4789C91.1048 14.2851 92.092 13.3795 93.2025 12.7825C94.2925 12.1856 95.4853 11.8975 96.7809 11.8975C98.0971 11.8975 99.2487 12.2268 100.256 12.906C101.264 13.5647 102.025 14.4704 102.498 15.6024C102.971 16.7345 103.218 18.4841 103.218 20.8717V29.8872H100.956V21.5304C100.956 19.5132 100.873 18.1548 100.709 17.4961C100.442 16.3434 99.948 15.4584 99.2076 14.882C98.4672 14.3057 97.5007 13.997 96.3079 13.997C94.9506 13.997 93.7166 14.4498 92.6472 15.3554C91.5778 16.2611 90.858 17.3726 90.5084 18.7105C90.3028 19.575 90.1794 21.1599 90.1794 23.4858V29.9078H87.9172V12.3297H87.9377Z" fill="black"/>
<path d="M104.678 31.3477H99.4545V21.5089C99.4545 19.0389 99.3311 18.1333 99.2488 17.8245C99.0637 16.96 98.7347 16.3837 98.2617 16.0132C97.8092 15.6221 97.1511 15.4369 96.3079 15.4369C95.3002 15.4369 94.3953 15.7662 93.5933 16.4454C92.7501 17.1453 92.2154 17.9892 91.9481 19.0183C91.8247 19.5123 91.6807 20.7062 91.6807 23.4231V31.3271H86.4571V10.8468H91.6807V11.9583C91.9481 11.7731 92.2154 11.6084 92.4828 11.4643C95.1563 10.0029 98.5907 10.0235 101.059 11.629C102.313 12.4523 103.259 13.5844 103.855 14.984C104.431 16.3014 104.699 18.2156 104.699 20.8297V31.3477H104.678Z" fill="black"/>
<path d="M69.7169 3.37616C69.7169 4.42591 68.8531 5.29041 67.8043 5.29041C66.7349 5.29041 65.8917 4.42591 65.8917 3.37616C65.8917 2.30583 66.7555 1.46191 67.8043 1.46191C68.8531 1.46191 69.7169 2.32641 69.7169 3.37616Z" fill="black"/>
<path d="M67.8039 6.79246C65.9325 6.79246 64.4106 5.2693 64.4106 3.39623C64.4106 1.52316 65.9325 0 67.8039 0C69.6754 0 71.1972 1.52316 71.1972 3.39623C71.1972 5.24872 69.6754 6.79246 67.8039 6.79246ZM67.8039 2.9434C67.5572 2.9434 67.3721 3.14923 67.3721 3.37564C67.3721 3.62264 67.5777 3.80789 67.8039 3.80789C68.0507 3.80789 68.2358 3.60206 68.2358 3.37564C68.2358 3.12864 68.0302 2.9434 67.8039 2.9434Z" fill="black"/>
</svg>
